<?xml version="1.0" encoding="UTF-8" standalone="no"?>
<svg
   xmlns:dc="http://purl.org/dc/elements/1.1/"
   xmlns:cc="http://creativecommons.org/ns#"
   xmlns:rdf="http://www.w3.org/1999/02/22-rdf-syntax-ns#"
   xmlns:svg="http://www.w3.org/2000/svg"
   xmlns="http://www.w3.org/2000/svg"
   xmlns:xlink="http://www.w3.org/1999/xlink"
   xmlns:sodipodi="http://sodipodi.sourceforge.net/DTD/sodipodi-0.dtd"
   xmlns:inkscape="http://www.inkscape.org/namespaces/inkscape"
   viewBox="-147 -70 294 345"
   id="svg2"
   version="1.1"
   inkscape:version="0.48.5 r10040"
   width="100%"
   height="100%"
   sodipodi:docname="Android_robot.svg">
  <metadata
     id="metadata33">
    <rdf:RDF>
      <cc:Work
         rdf:about="">
        <dc:format>image/svg+xml</dc:format>
        <dc:type
           rdf:resource="http://purl.org/dc/dcmitype/StillImage" />
      </cc:Work>
    </rdf:RDF>
  </metadata>
  <defs
     id="defs31" />
  <sodipodi:namedview
     pagecolor="#ffffff"
     bordercolor="#666666"
     borderopacity="1"
     objecttolerance="10"
     gridtolerance="10"
     guidetolerance="10"
     inkscape:pageopacity="0"
     inkscape:pageshadow="2"
     inkscape:window-width="1366"
     inkscape:window-height="715"
     id="namedview29"
     showgrid="false"
     inkscape:zoom="0.68405797"
     inkscape:cx="147"
     inkscape:cy="172.5"
     inkscape:window-x="-8"
     inkscape:window-y="-8"
     inkscape:window-maximized="1"
     inkscape:current-layer="svg2" />
  <g
     fill="#a4c639"
     id="g4">
    <use
       stroke-width="14.4"
       xlink:href="#b"
       stroke="#FFF"
       id="use6" />
    <use
       xlink:href="#a"
       transform="scale(-1,1)"
       id="use8" />
    <g
       id="a"
       stroke="#FFF"
       stroke-width="7.2">
      <rect
         rx="6.5"
         transform="rotate(29)"
         height="86"
         width="13"
         y="-86"
         x="14"
         id="rect11" />
      <rect
         id="c"
         rx="24"
         height="133"
         width="48"
         y="41"
         x="-143" />
      <use
         y="97"
         x="85"
         xlink:href="#c"
         id="use14" />
    </g>
    <g
       id="b">
      <ellipse
         cy="41"
         rx="91"
         ry="84"
         id="ellipse17" />
      <rect
         rx="22"
         height="182"
         width="182"
         y="20"
         x="-91"
         id="rect19" />
    </g>
  </g>
  <g
     stroke="#FFF"
     stroke-width="7.2"
     fill="#FFF"
     id="g21">
    <path
       d="m-95 44.5h190"
       id="path23" />
    <circle
       cx="-42"
       r="4"
       id="circle25" />
    <circle
       cx="42"
       r="4"
       id="circle27" />
  </g>
  <path
     style="fill:#333333;fill-opacity:1;stroke:#333333;stroke-width:1.46186435;stroke-opacity:1"
     d="m 107.29949,335.65592 c -2.29746,-0.71768 -5.51299,-2.49408 -7.14562,-3.94756 -5.87675,-5.23188 -6.95048,-10.80312 -6.95048,-36.06383 l 0,-24.01292 -11.329449,-0.52025 c -8.818269,-0.40495 -12.342577,-1.24293 -15.90028,-3.78067 -9.375471,-6.68758 -9.316881,-6.1804 -9.316881,-80.65226 l 0,-67.39029 90.70297,0 90.70297,0 -0.43284,68.60233 c -0.42058,66.6588 -0.51823,68.71665 -3.4469,72.63743 -5.85432,7.83753 -10.26343,9.97556 -21.77,10.55662 l -10.74801,0.54275 -0.54619,25.06454 c -0.63556,29.16528 -1.85416,33.01459 -11.89475,37.57316 -7.69982,3.49583 -8.96492,3.49183 -16.28488,-0.0518 -10.19059,-4.93315 -11.02813,-7.75595 -11.02813,-37.16864 l 0,-25.72255 -14.61865,0 -14.61864,0 -0.005,25.21716 c -0.005,22.41631 -0.32184,25.73604 -2.85394,29.8888 -5.03611,8.25945 -13.93689,11.90753 -22.51483,9.22793 l -6e-5,0 z"
     id="path3010"
     inkscape:connector-curvature="0"
     transform="translate(-147,-70)" />
  <path
     style="fill:#333333;fill-opacity:1;stroke:#333333;stroke-width:1.46186435;stroke-opacity:1"
     d="m 17.463938,236.19981 c -8.6466591,-5.27172 -9.0492842,-7.9202 -9.0432192,-59.48654 0.00511,-43.47363 0.1886256,-46.76154 2.8539382,-51.13278 4.037537,-6.62175 9.451359,-9.70337 17.046986,-9.70337 7.721724,0 13.292211,3.54613 17.003416,10.82425 2.272298,4.45626 2.556242,10.09909 2.558262,50.84041 0.0019,39.78361 -0.319703,46.50631 -2.43899,50.97238 -4.78585,10.08543 -18.062687,13.73231 -27.980393,7.68565 l 0,0 z"
     id="path3012"
     inkscape:connector-curvature="0"
     transform="translate(-147,-70)" />
  <path
     style="fill:#333333;fill-opacity:1;stroke:#333333;stroke-width:1.46186435;stroke-opacity:1"
     d="m 57.339545,102.35597 c 2.935519,-23.495103 16.3747,-44.730247 37.085556,-58.598601 4.554225,-3.049588 8.454479,-5.622184 8.667229,-5.716881 0.21275,-0.0947 -2.90003,-6.028298 -6.917294,-13.18578 -4.017261,-7.157484 -7.316065,-13.835905 -7.330674,-14.840937 -0.06684,-4.597393 3.306775,-0.764875 10.29456,11.694915 4.170998,7.437236 7.694778,13.660103 7.830608,13.828595 0.13584,0.168491 5.48147,-1.373837 11.87919,-3.427397 19.23373,-6.173704 46.64093,-4.896622 65.25821,3.040809 1.90971,0.814202 3.44621,-0.69611 6.8616,-6.744637 9.91768,-17.563885 12.05798,-20.6210772 13.45701,-19.2220319 0.90145,0.9014329 -1.29733,6.2667779 -6.11914,14.9316979 -4.13939,7.43858 -6.94996,13.991671 -6.24573,14.562427 0.70424,0.570754 5.16301,3.631262 9.90838,6.801128 18.9035,12.627364 32.21375,35.021589 34.96309,58.824753 l 0.71762,6.21292 -90.66493,0 -90.664932,0 1.019647,-8.16098 z M 110.74576,75.432203 c 3.83792,-3.837916 3.69006,-6.675894 -0.56977,-10.935718 -4.10011,-4.100108 -8.7266,-3.547741 -11.989061,1.431398 -5.423337,8.277059 5.511091,16.552059 12.558831,9.50432 z m 85.11658,-0.481368 c 4.24626,-6.675363 -3.00018,-15.521547 -10.07433,-12.298353 -5.79721,2.641388 -6.40858,13.211132 -0.85163,14.723631 3.5624,0.96962 9.62205,-0.375464 10.92596,-2.425278 l 0,0 z"
     id="path3014"
     inkscape:connector-curvature="0"
     transform="translate(-147,-70)" />
  <path
     style="fill:#333333;fill-opacity:1;stroke:#333333;stroke-width:1.46186435;stroke-opacity:1"
     d="m 255.90678,236.29647 c -9.23296,-5.62966 -9.36513,-6.53051 -8.89806,-60.64617 l 0.42136,-48.82105 3.65467,-3.95896 c 5.13316,-5.56057 12.21012,-8.27782 18.49059,-7.0996 7.45058,1.39774 14.70846,9.17173 15.86356,16.99164 0.50865,3.44354 0.71666,25.66723 0.46224,49.38598 -0.42026,39.1799 -0.71474,43.5415 -3.21899,47.67791 -5.57434,9.20747 -17.54285,12.09965 -26.77537,6.47025 z"
     id="path3016"
     inkscape:connector-curvature="0"
     transform="translate(-147,-70)" />
</svg>
